# xmcd
#
# Track frame offsets: 
#        150
#        14454
#        36238
#        50687
#        65782
#        92994
#        118975
#        133767
#        156310
#        181041
#        205904
#        228078
#
# Disc length: 3239 seconds
#
# Revision: 2
# Processed by: cddbd v1.5.2PL0 Copyright (c) Steve Scherf et al.
# Submitted via: ExactAudioCopy v0.95b4
#
DISCID=ad0ca50c
DTITLE=Various Artist - Let's Fall in Love - Jazz Standards for the Incurably 
DTITLE=Romantic Disc 1
DYEAR=2004
DGENRE=Jazz
TTITLE0=Rosemary Clooney - Nice 'N' Easy
TTITLE1=Mel Torme/ I Get a Kick Out of You
TTITLE2=Tony Bennett - As Time Goes By
TTITLE3=Monica Mancini - Something Tells Me
TTITLE4=Susannah McCorkle - Easy To Love
TTITLE5=Karrin Allyson - Like Someone In Love
TTITLE6=Peter Cincotti - You Stepped Out Of a Dream
TTITLE7=Ernestine Anderson - I love Being Here With You
TTITLE8=Patti Austin - Our Love Is Here To Stay
TTITLE9=Michael Feinstein - The Very Thought Of You
TTITLE10=Nnenna Freelon - Better Than Anything
TTITLE11=Carol Sloane - The Best Is Yet To Come
EXTD=YEAR: 2004
EXTT0=
EXTT1=
EXTT2=
EXTT3=
EXTT4=
EXTT5=
EXTT6=
EXTT7=
EXTT8=
EXTT9=
EXTT10=
EXTT11=
PLAYORDER=
